<svg viewBox="0 0 100 100" fill="none" xmlns="http://www.w3.org/2000/svg">
  <circle cx="50" cy="50" r="48" fill="#16a34a"/>
  <path d="M50 15 C25 35 25 60 50 85 C75 60 75 35 50 15Z" fill="#22c55e"/>
  <path d="M30 50 C20 60 25 75 50 85 C45 70 45 55 50 45 C40 47 32 50 30 50Z" fill="#fff" opacity="0.9"/>
  <path d="M70 50 C80 60 75 75 50 85 C55 70 55 55 50 45 C60 47 68 50 70 50Z" fill="#fff" opacity="0.9"/>
  <path d="M50 20 L50 80" stroke="#fff" stroke-width="3" stroke-linecap="round" opacity="0.6"/>
</svg>
